<?xml version="1.0" encoding="UTF-8" standalone="no"?>
<!-- Created with Inkscape (http://www.inkscape.org/) -->

<svg
   xmlns:dc="http://purl.org/dc/elements/1.1/"
   xmlns:cc="http://creativecommons.org/ns#"
   xmlns:rdf="http://www.w3.org/1999/02/22-rdf-syntax-ns#"
   xmlns:svg="http://www.w3.org/2000/svg"
   xmlns="http://www.w3.org/2000/svg"
   xmlns:xlink="http://www.w3.org/1999/xlink"
   xmlns:sodipodi="http://sodipodi.sourceforge.net/DTD/sodipodi-0.dtd"
   xmlns:inkscape="http://www.inkscape.org/namespaces/inkscape"
   width="360"
   height="360"
   id="svg130992"
   version="1.1"
   inkscape:version="0.48.4 r9939"
   sodipodi:docname="chinese zodiac snake.svg">
  <title
     id="title131166">Chinese Zodiac Snake in Color</title>
  <defs
     id="defs130994">
    <radialGradient
       inkscape:collect="always"
       xlink:href="#linearGradient31936-1"
       id="radialGradient130360"
       gradientUnits="userSpaceOnUse"
       gradientTransform="matrix(1,0,0,1.1578947,0,-24.826817)"
       cx="226.69217"
       cy="157.2365"
       fx="226.69217"
       fy="157.2365"
       r="7.9418888" />
    <linearGradient
       id="linearGradient31936-1"
       inkscape:collect="always">
      <stop
         id="stop31938-0"
         offset="0"
         style="stop-color:#ffffff;stop-opacity:1;" />
      <stop
         id="stop31940-4"
         offset="1"
         style="stop-color:#ffffff;stop-opacity:0;" />
    </linearGradient>
    <radialGradient
       inkscape:collect="always"
       xlink:href="#linearGradient40487"
       id="radialGradient40493"
       cx="872.86432"
       cy="352.99051"
       fx="872.86432"
       fy="352.99051"
       r="41.899223"
       gradientTransform="matrix(0.37856226,-0.30167288,0.3354951,0.54375662,-122.21363,714.3114)"
       gradientUnits="userSpaceOnUse" />
    <linearGradient
       inkscape:collect="always"
       id="linearGradient40487">
      <stop
         style="stop-color:#003380;stop-opacity:1;"
         offset="0"
         id="stop40489" />
      <stop
         style="stop-color:#5599ff;stop-opacity:1"
         offset="1"
         id="stop40491" />
    </linearGradient>
    <radialGradient
       inkscape:collect="always"
       xlink:href="#linearGradient40479"
       id="radialGradient40485"
       cx="202.61371"
       cy="155.69678"
       fx="202.61371"
       fy="155.69678"
       r="44.276211"
       gradientTransform="matrix(0.78615447,-0.71151359,0.65454852,0.95854774,-50.660852,160.93817)"
       gradientUnits="userSpaceOnUse" />
    <linearGradient
       inkscape:collect="always"
       id="linearGradient40479">
      <stop
         style="stop-color:#66ff00;stop-opacity:1;"
         offset="0"
         id="stop40481" />
      <stop
         style="stop-color:#2d5016;stop-opacity:1"
         offset="1"
         id="stop40483" />
    </linearGradient>
    <radialGradient
       inkscape:collect="always"
       xlink:href="#linearGradient40479"
       id="radialGradient150626"
       gradientUnits="userSpaceOnUse"
       gradientTransform="matrix(0.78615447,-0.71151359,0.65454852,0.95854774,-50.660852,160.93817)"
       cx="202.61371"
       cy="155.69678"
       fx="202.61371"
       fy="155.69678"
       r="44.276211" />
    <radialGradient
       inkscape:collect="always"
       xlink:href="#linearGradient40487"
       id="radialGradient150628"
       gradientUnits="userSpaceOnUse"
       gradientTransform="matrix(0.37856226,-0.30167288,0.3354951,0.54375662,-122.21363,714.3114)"
       cx="872.86432"
       cy="352.99051"
       fx="872.86432"
       fy="352.99051"
       r="41.899223" />
  </defs>
  <sodipodi:namedview
     inkscape:document-units="in"
     pagecolor="#ffffff"
     bordercolor="#666666"
     borderopacity="1.0"
     inkscape:pageopacity="0.0"
     inkscape:pageshadow="2"
     inkscape:zoom="0.82189617"
     inkscape:cx="373.16554"
     inkscape:cy="123.39079"
     inkscape:current-layer="layer1"
     id="namedview130996"
     showgrid="false"
     units="in"
     inkscape:window-width="767"
     inkscape:window-height="566"
     inkscape:window-x="272"
     inkscape:window-y="0"
     inkscape:window-maximized="0" />
  <metadata
     id="metadata130998">
    <rdf:RDF>
      <cc:Work
         rdf:about="">
        <dc:format>image/svg+xml</dc:format>
        <dc:type
           rdf:resource="http://purl.org/dc/dcmitype/StillImage" />
        <dc:title>Chinese Zodiac Snake in Color</dc:title>
      </cc:Work>
    </rdf:RDF>
  </metadata>
  <g
     inkscape:label="Layer 1"
     inkscape:groupmode="layer"
     id="layer1"
     transform="translate(0,-405)">
    <g
       id="g150614"
       transform="matrix(2.3133817,0,0,2.217902,-541.7055,-885.62107)">
      <path
         sodipodi:nodetypes="scsccs"
         inkscape:connector-curvature="0"
         id="path40495-7-0"
         d="m 294.91938,634.00244 c -9.02937,24.04032 -3.0315,33.79585 -0.55732,30.09558 -1.47984,20.04565 16.59761,49.90578 -21.17473,14.45989 -6.82071,-6.40061 -9.20766,-28.86107 4.45496,-48.45674 18.58646,-12.68111 -8.72386,-26.39356 -27.30895,-11.70384 2.85145,-23.31627 54.27947,-10.20323 44.58604,15.60511 z"
         style="fill:#005500;fill-opacity:1;fill-rule:evenodd;stroke:none" />
      <path
         sodipodi:nodetypes="scsccs"
         inkscape:connector-curvature="0"
         id="path40495-9"
         d="m 299.50863,630.02396 c -9.02937,24.04032 -3.0315,33.79585 -0.55732,30.09558 -1.47984,20.04565 16.59761,49.90578 -21.17473,14.45989 -6.82071,-6.40061 -6.97836,-24.40247 6.68426,-43.99814 18.58646,-12.68111 -13.73979,-30.85216 -32.32488,-16.16244 2.85145,-23.31627 57.0661,-10.20323 47.37267,15.60511 z"
         style="fill:#5599ff;fill-opacity:1;fill-rule:evenodd;stroke:none" />
      <path
         transform="matrix(1,0,0,0.86861314,116.78093,555.51964)"
         d="m 255.36946,123.02956 c 0,29.81793 -19.82314,53.99014 -44.27621,53.99014 -24.45308,0 -44.27621,-24.17221 -44.27621,-53.99014 0,-29.817938 19.82313,-53.99015 44.27621,-53.99015 24.45307,0 44.27621,24.172212 44.27621,53.99015 z"
         sodipodi:ry="53.990147"
         sodipodi:rx="44.276211"
         sodipodi:cy="123.02956"
         sodipodi:cx="211.09325"
         id="path31737-8-5-2"
         style="fill:url(#radialGradient150626);fill-opacity:1;fill-rule:evenodd;stroke:#002e00;stroke-opacity:1"
         sodipodi:type="arc" />
      <path
         transform="matrix(2.9704784,0,0,2.443928,-328.33126,-252.7182)"
         d="m 220.70092,372.36417 c 0,4.92483 -2.99428,8.9172 -6.6879,8.9172 -3.69363,0 -6.68791,-3.99237 -6.68791,-8.9172 0,-4.92484 2.99428,-8.91721 6.68791,-8.91721 3.69362,0 6.6879,3.99237 6.6879,8.91721 z"
         sodipodi:ry="8.9172087"
         sodipodi:rx="6.6879067"
         sodipodi:cy="372.36417"
         sodipodi:cx="214.01302"
         id="path33104-5-8-9-0-8"
         style="fill:#ffffff;fill-opacity:1;fill-rule:evenodd;stroke:none"
         sodipodi:type="arc" />
      <path
         transform="matrix(2.9704784,0,0,2.443928,-286.16378,-251.93002)"
         d="m 220.70092,372.36417 c 0,4.92483 -2.99428,8.9172 -6.6879,8.9172 -3.69363,0 -6.68791,-3.99237 -6.68791,-8.9172 0,-4.92484 2.99428,-8.91721 6.68791,-8.91721 3.69362,0 6.6879,3.99237 6.6879,8.91721 z"
         sodipodi:ry="8.9172087"
         sodipodi:rx="6.6879067"
         sodipodi:cy="372.36417"
         sodipodi:cx="214.01302"
         id="path33104-5-8-9-0-9-2"
         style="fill:#ffffff;fill-opacity:1;fill-rule:evenodd;stroke:none"
         sodipodi:type="arc" />
      <path
         transform="matrix(1.0259348,0,0,0.89713192,77.580074,322.85915)"
         d="m 220.70092,372.36417 c 0,4.92483 -2.99428,8.9172 -6.6879,8.9172 -3.69363,0 -6.68791,-3.99237 -6.68791,-8.9172 0,-4.92484 2.99428,-8.91721 6.68791,-8.91721 3.69362,0 6.6879,3.99237 6.6879,8.91721 z"
         sodipodi:ry="8.9172087"
         sodipodi:rx="6.6879067"
         sodipodi:cy="372.36417"
         sodipodi:cx="214.01302"
         id="path33104-5-8-9-0-9-0-4"
         style="fill:#000000;fill-opacity:1;fill-rule:evenodd;stroke:none"
         sodipodi:type="arc" />
      <path
         transform="matrix(1.0259348,0,0,0.89713192,120.53574,323.25323)"
         d="m 220.70092,372.36417 c 0,4.92483 -2.99428,8.9172 -6.6879,8.9172 -3.69363,0 -6.68791,-3.99237 -6.68791,-8.9172 0,-4.92484 2.99428,-8.91721 6.68791,-8.91721 3.69362,0 6.6879,3.99237 6.6879,8.91721 z"
         sodipodi:ry="8.9172087"
         sodipodi:rx="6.6879067"
         sodipodi:cy="372.36417"
         sodipodi:cx="214.01302"
         id="path33104-5-8-9-0-9-0-9-5"
         style="fill:#000000;fill-opacity:1;fill-rule:evenodd;stroke:none"
         sodipodi:type="arc" />
      <path
         sodipodi:nodetypes="sssss"
         inkscape:connector-curvature="0"
         id="path33104-5-8-9-0-9-0-9-7-0"
         d="m 340.65509,692.18985 c 0,0.82702 -7.19507,4.25607 -12.18155,4.25607 -4.9865,0 -11.78747,-3.42905 -11.78747,-4.25607 0,-0.82702 6.80097,1.26118 11.78747,1.26118 4.98648,0 12.18155,-2.0882 12.18155,-1.26118 z"
         style="fill:#000000;fill-opacity:1;fill-rule:evenodd;stroke:none" />
      <path
         sodipodi:nodetypes="ccccc"
         inkscape:connector-curvature="0"
         id="path33989-4"
         d="m 328.315,726.56116 -1.09043,-17.01669 -10.80053,18.62399 c 8.74637,-31.69084 13.28103,-35.01981 12.95794,-33.75489 0.27708,19.92655 2.25978,15.71569 -1.06698,32.14759 z"
         inkscape:transform-center-y="1.3671544"
         inkscape:transform-center-x="0.27652953"
         style="fill:#ff0000;fill-opacity:1;fill-rule:evenodd;stroke:none" />
      <path
         sodipodi:nodetypes="csccsc"
         inkscape:connector-curvature="0"
         id="path34011-4"
         d="m 328.32005,648.68528 -9.86327,-16.57504 c -4.75174,-7.98521 -17.17471,-5.42107 -26.715,3.30354 13.69412,-30.39999 58.39185,-27.26371 70.1678,-2.47893 -8.60796,-3.29269 -21.30405,-9.91002 -25.82388,-0.46953 z"
         inkscape:transform-center-y="4.4175399"
         inkscape:transform-center-x="-0.48709834"
         style="fill:url(#radialGradient150628);fill-opacity:1;fill-rule:evenodd;stroke:#002e00;stroke-width:0.49621707;stroke-opacity:1" />
    </g>
  </g>
</svg>
